<svg xmlns="http://www.w3.org/2000/svg" xmlns:xlink="http://www.w3.org/1999/xlink" viewBox="0 0 400 300"><defs><linearGradient id="linear-gradient" x1="153.92" y1="194.2" x2="130.69" y2="232.46" gradientUnits="userSpaceOnUse"><stop offset="0" stop-color="#d4a397"/><stop offset="1" stop-color="#fff"/></linearGradient><linearGradient id="linear-gradient-2" x1="193.72" y1="101.17" x2="191.46" y2="222.53" gradientUnits="userSpaceOnUse"><stop offset="0" stop-color="#fff" stop-opacity="0"/><stop offset="1" stop-color="aqua"/></linearGradient><linearGradient id="linear-gradient-3" x1="339.11" y1="179.76" x2="295.74" y2="215.06" xlink:href="#linear-gradient"/></defs><title>201-210</title><g style="isolation:isolate"><g id="Layer_2" data-name="Layer 2"><path d="M35.81,195.56l160.71,92.61a4.56,4.56,0,0,0,4.53,0l157.2-89.25a4.56,4.56,0,0,0,0-7.92L194.83,97.5a4.56,4.56,0,0,0-4.56,0L35.78,187.67A4.56,4.56,0,0,0,35.81,195.56Z" fill="#fee9d4"/><path d="M119.5,191.34,74,216.29s68.32,41.94,76.5,45.38l45.69-27.59" fill="url(#linear-gradient)" style="mix-blend-mode:multiply"/><polyline points="293.06 153.71 293.06 61.72 248.7 35.8 248.7 128.47" fill="#fc8f00"/><path d="M119.61,191.15l74.49,42.93a2.11,2.11,0,0,0,2.1,0l72.87-41.37a2.11,2.11,0,0,0,0-3.67l-75.75-43.35a2.11,2.11,0,0,0-2.12,0l-71.6,41.79A2.11,2.11,0,0,0,119.61,191.15Z" fill="#269b9e"/><path d="M119.61,191.15l74.49,42.93a2.11,2.11,0,0,0,2.1,0l72.87-41.37a2.11,2.11,0,0,0,0-3.67l-75.75-43.35a2.11,2.11,0,0,0-2.12,0l-71.6,41.79A2.11,2.11,0,0,0,119.61,191.15Z" fill="#000000" opacity="0.56"/><path d="M120.18,180.23l74.49,42.93a2.11,2.11,0,0,0,2.1,0l72.87-41.37a2.11,2.11,0,0,0,0-3.67l-75.75-43.35a2.11,2.11,0,0,0-2.12,0l-71.6,41.79A2.11,2.11,0,0,0,120.18,180.23Z" fill="#000000"/><polygon points="268.01 176.25 266.17 60 192.38 31.54 118.54 73.93 118.55 174.69 195.14 217.62 268.01 176.25" opacity="0.33" fill="url(#linear-gradient-2)"/><polygon points="261.11 97.9 261.15 103.9 260.44 103.53 255.88 101.13 256.76 95.61 260.39 97.52 261.11 97.9" fill="#ffd64c"/><polygon points="269.1 103.4 269.14 108.12 269.18 113.17 264.32 110.61 264.28 105.56 264.25 100.84 269.1 103.4" fill="#ffd64c"/><polygon points="277.63 107.89 277.67 112.47 277.71 117.66 272.85 115.1 272.81 110.05 272.77 105.33 277.63 107.89" fill="#ffd64c"/><polygon points="260.86 67.78 260.86 67.8 260.91 73.78 260.19 73.4 256.53 71.47 255.59 65 260.86 67.78" fill="#ffd64c"/><polygon points="268.8 65.27 268.85 72.01 268.88 75.31 264.02 72.75 263.99 69.45 263.94 62.72 268.8 65.27" fill="#ffd64c"/><path d="M284.27,100.93a15.11,15.11,0,0,1,1.64,6.76,6.86,6.86,0,0,1-.77,3.6,3.78,3.78,0,0,1-2.19,1.73,6.59,6.59,0,0,1-3.24.06,12.8,12.8,0,0,1-2-.6l0-4.58-4.86-2.56,0,4.72-3.67-1.93,0-4.72-4.86-2.56,0,4.72-3.85-2,.72.37,0-6-.72-.38-.19-24.12.72.38,0-6L264,69.45l0,3.3,4.86,2.56,0-3.3,3.67,1.93,0,3.3,4.86,2.56,0-3.3a10.81,10.81,0,0,1,2.74,2.25,17,17,0,0,1,2.29,3.31,18.13,18.13,0,0,1,1.48,3.72,14.11,14.11,0,0,1,.54,3.6,7.5,7.5,0,0,1-1.13,4.34,3.64,3.64,0,0,1-3.37,1.64A17.72,17.72,0,0,1,284.27,100.93Zm-4.88,3.83a4,4,0,0,0,.3-1.66,7.6,7.6,0,0,0-.3-2,9.94,9.94,0,0,0-.8-2,8.17,8.17,0,0,0-1.17-1.65,5.44,5.44,0,0,0-1.48-1.16l-9.47-5,.08,9.51,9.16,4.83a3.7,3.7,0,0,0,1.58.47,2.08,2.08,0,0,0,1.27-.32,2.34,2.34,0,0,0,.83-1.06m-13-28.08.07,9.1,8.22,4.33a2.62,2.62,0,0,0,2.65.18c.72-.44,1.08-1.36,1.07-2.78a7.61,7.61,0,0,0-1-3.83,6.3,6.3,0,0,0-2.49-2.53l-8.49-4.47" fill="#ffd64c"/><polygon points="277.32 69.77 277.38 76.51 277.4 79.8 272.55 77.25 272.52 73.94 272.47 67.21 277.32 69.77" fill="#ffd64c"/><path d="M98.38,112.24l36.39-20a4.45,4.45,0,0,0,2.31-3.9V21.67a4.45,4.45,0,0,0-6.68-3.86L94,38.82a4.45,4.45,0,0,0-2.23,3.86v65.66A4.45,4.45,0,0,0,98.38,112.24Z" fill="#000000"/><path d="M100.59,65.78v16c0,4.64,7.21,4.65,7.21,0v-16C107.8,61.14,100.59,61.14,100.59,65.78Z" fill="#56403d"/><path d="M110.39,49.4V75.16c0,4.64,7.21,4.65,7.21,0V49.4C117.6,44.76,110.39,44.75,110.39,49.4Z" fill="#ffa197"/><path d="M122,30.73V70.28c0,4.64,7.21,4.65,7.21,0V30.73C129.21,26.09,122,26.08,122,30.73Z" fill="#f2f2f2"/><path d="M113,86.22l-8.91,4.68c-1.26.66-.14,2.58,1.12,1.92l8.91-4.68C115.42,87.48,114.3,85.56,113,86.22Z" fill="#f2f2f2"/><path d="M128.66,85.06q-12.43,6.67-25.12,12.84c-1.28.62-.16,2.54,1.12,1.92Q117.34,93.64,129.78,87C131,86.3,129.92,84.38,128.66,85.06Z" fill="#f2f2f2"/><path d="M45.15,160l36.63-20.11a4.48,4.48,0,0,0,2.33-3.93V68.8a4.48,4.48,0,0,0-6.72-3.88L40.75,86.06a4.48,4.48,0,0,0-2.24,3.88V156A4.48,4.48,0,0,0,45.15,160Z" fill="#000000"/><path d="M58.76,95.57c2.18-2.23,4.52-3.41,6.72-3.41a5.94,5.94,0,0,1,1.23.13,7.1,7.1,0,0,1,4.16,2.87A41,41,0,0,1,74,91.3a11.55,11.55,0,0,0-6.29-3.78c-4.23-.89-8.65.76-12.45,4.65a24.44,24.44,0,0,0-3,3.81c1.39.84,2.74,1.74,4.1,2.64A19.63,19.63,0,0,1,58.76,95.57Z" fill="#56403d"/><path d="M58.79,129.94c-2.33-.7-4.26-2.84-5.47-6.1a24.91,24.91,0,0,1-.62-13.59A27.82,27.82,0,0,1,55.81,102c-1.36-.9-2.71-1.79-4.1-2.64a32.66,32.66,0,0,0-3.78,9.86,29.82,29.82,0,0,0,.82,16.3c1.74,4.67,4.71,7.83,8.45,9C57.68,133,58.19,131.45,58.79,129.94Z" fill="#ffa197"/><path d="M77.23,99.31a18.13,18.13,0,0,0-2.54-4.7,40.89,40.89,0,0,0-3.19,4A14.41,14.41,0,0,1,72.66,101a24.91,24.91,0,0,1,.62,13.59,24.91,24.91,0,0,1-6.07,12.17c-2.4,2.46-5,3.64-7.38,3.37-.61,1.53-1.13,3.1-1.62,4.67h0a11,11,0,0,0,2.27.24c3.51,0,7.06-1.69,10.18-4.89a31.9,31.9,0,0,0,6.53-30.86Z" fill="#f2f2f2"/><ellipse cx="64.81" cy="111.54" rx="5.52" ry="3.04" transform="translate(-53.22 163.61) rotate(-83.65)" fill="#f2f2f2"/><path d="M77.5,136,54.69,147.47a.77.77,0,0,0,.69,1.38l22.81-11.46A.77.77,0,0,0,77.5,136Z" fill="#f2f2f2"/><path d="M77.5,132.49,54.69,143.94a.77.77,0,0,0,.69,1.38l22.81-11.46A.77.77,0,0,0,77.5,132.49Z" fill="#f2f2f2"/><path d="M317.51,195.08,282.26,212.2a108,108,0,0,0,16.37,9l35.92-23.95" fill="url(#linear-gradient-3)" style="mix-blend-mode:multiply"/><path d="M314.16,162.49a.94.94,0,0,1-.21-.31c-1.51-.76-3-1.48-4.59-2.15-.48-.36-1-.69-1.46-1a.84.84,0,0,1-.66.27,39.7,39.7,0,0,1-6.73-.76,2.72,2.72,0,0,0-.23.6,17.48,17.48,0,0,1,3.93,8.18c.43.49.89,1,1.39,1.54,2.23.88,5.26.69,7.8,1a4.31,4.31,0,0,0,.28-.8l.11,0a19.9,19.9,0,0,1,2.49,1.11,10,10,0,0,1,4.6,1.9,3.14,3.14,0,0,0,1-.62C319.26,168.54,317,165.28,314.16,162.49Z" fill="#1b896c"/><path d="M327.07,164.91l6.26-4.93s8.45-2.68,8.33-11.75-2.83-11.5-2.83-11.5S328.3,152.6,327.07,164.91Z" fill="#1b896c"/><path d="M313.85,182.13l3.2,14.93a3.36,3.36,0,0,0,1.8,2.31c1.86.91,5.7,1.86,13,.54a3.38,3.38,0,0,0,2.7-2.6l3.28-15.18" fill="#000000"/><ellipse cx="325.84" cy="182.13" rx="11.99" ry="4.91" fill="#56403d"/><path d="M342.32,145.17c-.28-3.61-2.66-6.84-2.3-10.48.07-.68-.86-.79-1.18-.32a72,72,0,0,0-11.78,30.54.64.64,0,0,0-.07.44,71.94,71.94,0,0,0-.45,14.74,9.16,9.16,0,0,0,1.25-.2,71.11,71.11,0,0,1,.47-14.46c2.13-2.53,5.15-3.73,7.72-5.74a16.43,16.43,0,0,0,5-6.46A17.09,17.09,0,0,0,342.32,145.17Zm-2.55,7.56a16,16,0,0,1-6.45,7.25c-1.19.75-2.37,1.46-3.47,2.27a109.21,109.21,0,0,0,5.89-13.87c.27-.77-1-1.1-1.22-.34A107,107,0,0,1,329,161.15a70.93,70.93,0,0,1,9.83-24.43c.31,2.05,1.28,3.9,1.82,6A15.55,15.55,0,0,1,339.78,152.72Z" fill="#37b596"/><path d="M325.94,180.12c-1-2.58-2-5.19-3.16-7.68a.65.65,0,0,0-.26-.61l0,0a29.37,29.37,0,0,0-5.9-8.26c-4.78-4.53-11-5.63-17.34-6.36-.64-.07-.76.7-.39,1.07a.59.59,0,0,0,.27.37c3.76,2.33,2.66,8.26,6.64,10.45,1.87,1,4.14.72,6.18.8a19.06,19.06,0,0,1,7.83,1.79,18.32,18.32,0,0,1,4.32,8.35A10.64,10.64,0,0,0,325.94,180.12ZM308.6,162.89c-.77-.28-1.1.94-.34,1.22a29.72,29.72,0,0,1,9.19,5.28,18.36,18.36,0,0,0-2-.45c-2.65-.43-6.72.4-9.06-1-3.27-1.9-3-6.54-5.33-9.31,5.69.76,11.1,2.12,15.29,6.43a26.77,26.77,0,0,1,3.9,5.24A29.88,29.88,0,0,0,308.6,162.89Z" fill="#37b596"/><polyline points="188.21 117.3 185.46 123.26 147.09 108.95 145.16 103.65 147.43 98.79 147.44 102.38" fill="#e27801"/><path d="M159.6,124.66c-11-5.59-17.5-15.2-14.22-21.47s15.46-7.23,26.33-1.56,17,15.35,13.76,21.62S169.79,129.81,159.6,124.66Z" fill="#e27801"/><path d="M175,123.21l-2.22,5s-7-.34-11-2.58l2.17-5.09" fill="#e5913e"/><path d="M161.94,119.65c-11-5.59-17.5-15.2-14.22-21.47s15.46-7.23,26.33-1.56,17,15.35,13.76,21.62S172.13,124.8,161.94,119.65Z" fill="#ffd64c"/><ellipse cx="167.79" cy="107.8" rx="10.47" ry="18.15" transform="translate(-5.41 206.68) rotate(-62.44)" fill="#fe9b00"/><path d="M155.15,97.53c6.24-2,12.8.47,18.24,3.51s11.49,8.1,10.63,14.85c2.33-5.13-2.68-12.83-11.39-17.37-8.89-4.64-18.26-4.24-20.93.88l-.12.26A8.79,8.79,0,0,1,155.15,97.53Z" fill="#e88400"/><g style="isolation:isolate"><polygon points="169.21 103.94 168.49 105.77 167.2 104.12 167.92 102.28 169.21 103.94" fill="#ed6128"/><polygon points="168.2 102.23 167.47 104.07 167.2 104.12 167.92 102.28 168.2 102.23" fill="#ed6128"/><polygon points="170.91 103.64 170.18 105.48 168.77 105.73 169.49 103.89 170.91 103.64" fill="#ed6128"/><polygon points="169.49 103.89 168.77 105.73 168.49 105.77 169.21 103.94 169.49 103.89" fill="#ed6128"/><polygon points="167.72 103.79 166.99 105.63 165.98 104.33 166.7 102.49 167.72 103.79" fill="#ed6128"/><polygon points="164.81 102.81 164.09 104.65 163 103.26 163.72 101.42 164.81 102.81" fill="#ed6128"/><polygon points="167.72 103.79 166.99 105.63 165.1 105.95 165.83 104.11 167.72 103.79" fill="#ed6128"/><polygon points="165.83 104.11 165.1 105.95 164.09 104.65 164.81 102.81 165.83 104.11" fill="#ed6128"/><polygon points="164.4 104.36 163.67 106.2 162.66 104.9 163.38 103.06 164.4 104.36" fill="#ed6128"/><polygon points="161.52 103.42 160.79 105.26 159.68 103.83 160.41 101.99 161.52 103.42" fill="#ed6128"/><polygon points="169.13 106.9 168.4 108.74 166.35 106.12 167.08 104.28 169.13 106.9" fill="#ed6128"/><polygon points="164.4 104.36 163.67 106.2 161.78 106.52 162.51 104.68 164.4 104.36" fill="#ed6128"/><polygon points="167.08 104.28 166.35 106.12 162.79 106.73 163.51 104.89 167.08 104.28" fill="#ed6128"/><polygon points="162.51 104.68 161.78 106.52 160.79 105.26 161.52 103.42 162.51 104.68" fill="#ed6128"/><path d="M162,107.28l.73-1.84a.73.73,0,0,1,.28-.34,1.29,1.29,0,0,1,.54-.2l-.73,1.84a1.29,1.29,0,0,0-.54.2A.73.73,0,0,0,162,107.28Z" fill="#ed6128"/><polygon points="175.69 112.23 174.96 114.07 173.67 112.42 174.4 110.58 175.69 112.23" fill="#ed6128"/><polygon points="174.68 110.53 173.95 112.37 173.67 112.42 174.4 110.58 174.68 110.53" fill="#ed6128"/><polygon points="177.74 111.88 177.02 113.72 174.96 114.07 175.69 112.23 177.74 111.88" fill="#ed6128"/><polygon points="175.69 112.23 174.96 114.07 174.96 114.07 175.69 112.23 175.69 112.23" fill="#ed6128"/><polygon points="172.28 110.94 171.55 112.78 169.59 110.27 170.32 108.43 172.28 110.94" fill="#ed6128"/><polygon points="170.32 108.43 169.59 110.27 166.39 110.82 167.12 108.98 170.32 108.43" fill="#ed6128"/><polygon points="174.47 112.44 173.74 114.28 173.03 113.37 173.76 111.53 174.47 112.44" fill="#ed6128"/><polygon points="175.69 112.23 174.96 114.07 173.74 114.28 174.47 112.44 175.69 112.23" fill="#ed6128"/><path d="M167.12,109l-.73,1.84a.92.92,0,0,0-.77.51l.73-1.84A.92.92,0,0,1,167.12,109Z" fill="#ed6128"/><polygon points="173.76 111.53 173.03 113.37 171.14 113.69 171.87 111.85 173.76 111.53" fill="#ed6128"/><path d="M159.06,106.52l.73-1.84a1.35,1.35,0,0,0-.08.66,2.4,2.4,0,0,0,.55,1.16,5.28,5.28,0,0,0,1.89,1.53l-.73,1.84a5.28,5.28,0,0,1-1.89-1.53,2.4,2.4,0,0,1-.55-1.16A1.35,1.35,0,0,1,159.06,106.52Z" fill="#ed6128"/><path d="M164.53,108.64l-.73,1.84a6.19,6.19,0,0,1-2.38-.62l.73-1.84A6.19,6.19,0,0,0,164.53,108.64Z" fill="#ed6128"/><polygon points="172.58 112.76 171.85 114.6 171.14 113.69 171.87 111.85 172.58 112.76" fill="#ed6128"/><polygon points="172.58 112.76 171.85 114.6 170.42 114.85 171.15 113.01 172.58 112.76" fill="#ed6128"/><polygon points="171.15 113.01 170.42 114.85 169.71 113.94 170.44 112.1 171.15 113.01" fill="#ed6128"/><polygon points="170.44 112.1 169.71 113.94 167.82 114.26 168.55 112.42 170.44 112.1" fill="#ed6128"/><polygon points="174.03 114.62 173.3 116.46 171.85 114.6 172.58 112.76 174.03 114.62" fill="#ed6128"/><polygon points="175.92 114.29 175.19 116.13 173.3 116.46 174.03 114.62 175.92 114.29" fill="#ed6128"/><polygon points="169.25 113.33 168.53 115.17 167.82 114.26 168.55 112.42 169.25 113.33" fill="#ed6128"/><path d="M163.3,111.1l.73-1.84a1.27,1.27,0,0,0-.08.56,2.62,2.62,0,0,0,.61,1.44,4.93,4.93,0,0,0,.92.88,6.34,6.34,0,0,0,1.2.72,5.93,5.93,0,0,0,1.34.43,3.78,3.78,0,0,0,1.24,0l-.73,1.84a3.78,3.78,0,0,1-1.24,0,5.93,5.93,0,0,1-1.34-.43,6.34,6.34,0,0,1-1.2-.72,4.93,4.93,0,0,1-.92-.88,2.62,2.62,0,0,1-.61-1.44A1.27,1.27,0,0,1,163.3,111.1Z" fill="#ed6128"/><polygon points="172.6 114.86 171.87 116.7 169.98 117.03 170.71 115.19 172.6 114.86" fill="#ed6128"/><polygon points="169.21 103.94 167.92 102.28 168.2 102.23 169.97 101.93 170.91 103.64 169.49 103.89 169.21 103.94" fill="#ffd64c"/><polygon points="165.83 104.11 164.81 102.81 163.72 101.42 165.62 101.1 166.7 102.49 167.72 103.79 165.83 104.11" fill="#ffd64c"/><polygon points="162.51 104.68 161.52 103.42 160.41 101.99 162.3 101.67 163.38 103.06 164.4 104.36 162.51 104.68" fill="#ffd64c"/><polygon points="175.69 112.23 175.69 112.23 174.4 110.58 174.68 110.53 176.11 110.29 177.74 111.88 175.69 112.23" fill="#ffd64c"/><polygon points="174.03 114.62 172.58 112.76 171.87 111.85 173.76 111.53 174.47 112.44 175.92 114.29 174.03 114.62" fill="#ffd64c"/><path d="M162.15,108a5.28,5.28,0,0,1-1.89-1.53,2.4,2.4,0,0,1-.55-1.16,1.32,1.32,0,0,1,.24-.95,2.3,2.3,0,0,1,.89-.71,4.47,4.47,0,0,1,.69-.27l1,1.26,1.89-.32-1-1.3,1.43-.24,1,1.3,1.89-.32-1-1.3,1.5-.26-.28,0,1.29,1.65.28,0,5.19,6.65-.28,0,1.29,1.65-1.22.21-.71-.91-1.89.32.71.91-1.43.24-.71-.91-1.89.32.71.91a3.78,3.78,0,0,1-1.24,0,5.93,5.93,0,0,1-1.34-.43,6.34,6.34,0,0,1-1.2-.72,4.93,4.93,0,0,1-.92-.88,2.62,2.62,0,0,1-.61-1.44,1.27,1.27,0,0,1,.58-1.17A6.19,6.19,0,0,1,162.15,108Zm.54-2.1a1.4,1.4,0,0,0,.27.53,2.66,2.66,0,0,0,.51.49,3.47,3.47,0,0,0,.64.38,2.86,2.86,0,0,0,.68.21,1.9,1.9,0,0,0,.66,0l3.69-.63-2-2.62-3.57.61a1.29,1.29,0,0,0-.54.2.73.73,0,0,0-.28.36.82.82,0,0,0,0,.47m9.59,5-2-2.51-3.2.55a.92.92,0,0,0-.77.51,1,1,0,0,0,.3,1,2.66,2.66,0,0,0,1.1.84,2.2,2.2,0,0,0,1.23.17l3.3-.57" fill="#ffd64c"/><polygon points="170.71 115.19 169.25 113.33 168.55 112.42 170.44 112.1 171.15 113.01 172.6 114.86 170.71 115.19" fill="#ffd64c"/><polygon points="170.71 115.19 169.98 117.03 168.53 115.17 169.25 113.33 170.71 115.19" fill="#ed6128"/></g><polyline points="223.03 136.34 229.8 142.43 195.13 187.43 187.31 187.81 181.79 182.81 186.55 184.27" fill="#e27801"/><path d="M221.07,177.28c-11.93,12.36-27.31,17-34.28,10.06s-3.25-23.45,8.72-35.53,27.32-16.28,34.29-9.38S232.07,165.88,221.07,177.28Z" fill="#e27801"/><path d="M225.44,156.3l5.75,5s-3.33,9.17-7.92,13.53l-5.85-5" fill="#e5913e"/><path d="M215.38,172.12c-11.93,12.36-27.31,17-34.28,10.06s-3.25-23.45,8.72-35.53,27.32-16.28,34.29-9.38S226.38,160.73,215.38,172.12Z" fill="#ffd64c"/><ellipse cx="202.07" cy="159.51" rx="25.18" ry="14.52" transform="translate(-53.46 190.82) rotate(-45.27)" fill="#fe9b00"/><path d="M183.29,172.06c-.08-9.09,5.87-16.78,12.12-22.74s15.45-11.91,24-8c-5.85-5.19-18.09-1.7-27.69,8-9.79,9.88-13.1,22.46-7.4,28.11l.29.26A12.2,12.2,0,0,1,183.29,172.06Z" fill="#e88400"/><g style="isolation:isolate"><polygon points="197.54 156.05 199.68 157.76 196.96 158.8 194.82 157.08 197.54 156.05" fill="#ed6128"/><polygon points="194.86 156.69 197 158.41 196.96 158.8 194.82 157.08 194.86 156.69" fill="#ed6128"/><polygon points="197.85 153.68 199.99 155.4 199.73 157.37 197.59 155.66 197.85 153.68" fill="#ed6128"/><polygon points="197.59 155.66 199.73 157.37 199.68 157.76 197.54 156.05 197.59 155.66" fill="#ed6128"/><polygon points="196.73 157.97 198.87 159.69 196.73 160.5 194.59 158.78 196.73 157.97" fill="#ed6128"/><polygon points="194.25 161.42 196.38 163.14 194.1 164.01 191.96 162.29 194.25 161.42" fill="#ed6128"/><polygon points="196.73 157.97 198.87 159.69 198.52 162.32 196.38 160.61 196.73 157.97" fill="#ed6128"/><polygon points="196.38 160.61 198.52 162.32 196.38 163.14 194.25 161.42 196.38 160.61" fill="#ed6128"/><polygon points="196.12 162.6 198.26 164.32 196.13 165.13 193.99 163.42 196.12 162.6" fill="#ed6128"/><polygon points="193.7 166.03 195.84 167.75 193.49 168.64 191.35 166.92 193.7 166.03" fill="#ed6128"/><polygon points="201.44 157.38 203.57 159.09 199.26 160.73 197.12 159.01 201.44 157.38" fill="#ed6128"/><polygon points="196.12 162.6 198.26 164.32 197.92 166.96 195.78 165.24 196.12 162.6" fill="#ed6128"/><polygon points="197.12 159.01 199.26 160.73 198.61 165.71 196.47 163.99 197.12 159.01" fill="#ed6128"/><polygon points="195.78 165.24 197.92 166.96 195.84 167.75 193.7 166.03 195.78 165.24" fill="#ed6128"/><path d="M199,167l-2.14-1.72a1,1,0,0,1-.34-.51,1.79,1.79,0,0,1-.05-.8l2.14,1.72a1.79,1.79,0,0,0,.05.8A1,1,0,0,0,199,167Z" fill="#ed6128"/><polygon points="211.18 150.87 213.32 152.58 210.61 153.61 208.47 151.9 211.18 150.87" fill="#ed6128"/><polygon points="208.52 151.5 210.66 153.22 210.61 153.61 208.47 151.9 208.52 151.5" fill="#ed6128"/><polygon points="211.56 148 213.7 149.71 213.33 152.58 211.19 150.86 211.56 148" fill="#ed6128"/><polygon points="211.19 150.86 213.33 152.58 213.32 152.58 211.18 150.87 211.19 150.86" fill="#ed6128"/><polygon points="208.07 154.86 210.21 156.57 206.09 158.14 203.95 156.42 208.07 154.86" fill="#ed6128"/><polygon points="203.95 156.42 206.09 158.14 205.5 162.61 203.36 160.89 203.95 156.42" fill="#ed6128"/><polygon points="210.96 152.57 213.1 154.28 211.6 154.85 209.46 153.13 210.96 152.57" fill="#ed6128"/><polygon points="211.18 150.87 213.32 152.58 213.1 154.28 210.96 152.57 211.18 150.87" fill="#ed6128"/><path d="M203.36,160.89l2.14,1.72a1.27,1.27,0,0,0,.36,1.23l-2.14-1.72A1.27,1.27,0,0,1,203.36,160.89Z" fill="#ed6128"/><polygon points="209.46 153.13 211.6 154.85 211.26 157.49 209.12 155.77 209.46 153.13" fill="#ed6128"/><path d="M196.81,170.57l-2.14-1.72a1.88,1.88,0,0,0,.84.38,3.33,3.33,0,0,0,1.77-.26,7.33,7.33,0,0,0,2.8-1.88l2.14,1.72a7.33,7.33,0,0,1-2.8,1.88,3.33,3.33,0,0,1-1.77.26A1.88,1.88,0,0,1,196.81,170.57Z" fill="#ed6128"/><path d="M201.86,164.18,204,165.9a8.59,8.59,0,0,1-1.8,2.91l-2.14-1.72A8.59,8.59,0,0,0,201.86,164.18Z" fill="#ed6128"/><polygon points="210.61 155.21 212.75 156.92 211.26 157.49 209.12 155.77 210.61 155.21" fill="#ed6128"/><polygon points="210.61 155.21 212.75 156.92 212.49 158.91 210.35 157.2 210.61 155.21" fill="#ed6128"/><polygon points="210.35 157.2 212.49 158.91 211 159.48 208.85 157.77 210.35 157.2" fill="#ed6128"/><polygon points="208.85 157.77 211 159.48 210.65 162.12 208.51 160.41 208.85 157.77" fill="#ed6128"/><polygon points="213.67 154.04 215.81 155.76 212.75 156.92 210.61 155.21 213.67 154.04" fill="#ed6128"/><polygon points="214.01 151.41 216.15 153.12 215.81 155.76 213.67 154.04 214.01 151.41" fill="#ed6128"/><polygon points="210 159.84 212.14 161.56 210.65 162.12 208.51 160.41 210 159.84" fill="#ed6128"/><path d="M204.61,166.82l-2.14-1.72a1.76,1.76,0,0,0,.71.33,3.64,3.64,0,0,0,2.16-.22,6.84,6.84,0,0,0,1.55-.85,8.79,8.79,0,0,0,1.44-1.3,8.22,8.22,0,0,0,1.12-1.6,5.24,5.24,0,0,0,.56-1.63l2.14,1.72a5.24,5.24,0,0,1-.56,1.63,8.22,8.22,0,0,1-1.12,1.6,8.79,8.79,0,0,1-1.44,1.3,6.84,6.84,0,0,1-1.55.85,3.64,3.64,0,0,1-2.16.22A1.76,1.76,0,0,1,204.61,166.82Z" fill="#ed6128"/><polygon points="213.41 156.04 215.54 157.75 215.2 160.39 213.06 158.68 213.41 156.04" fill="#ed6128"/><polygon points="197.54 156.05 194.82 157.08 194.87 156.69 195.19 154.22 197.85 153.68 197.59 155.66 197.54 156.05" fill="#ffd64c"/><polygon points="196.38 160.61 194.25 161.42 191.96 162.29 192.3 159.65 194.59 158.78 196.73 157.97 196.38 160.61" fill="#ffd64c"/><polygon points="195.78 165.24 193.7 166.03 191.35 166.92 191.7 164.28 193.99 163.42 196.12 162.6 195.78 165.24" fill="#ffd64c"/><polygon points="211.19 150.86 211.18 150.87 208.47 151.9 208.52 151.5 208.78 149.51 211.56 148 211.19 150.86" fill="#ffd64c"/><polygon points="213.67 154.04 210.61 155.21 209.12 155.77 209.46 153.13 210.96 152.57 214.01 151.41 213.67 154.04" fill="#ffd64c"/><path d="M200.07,167.09a7.33,7.33,0,0,1-2.8,1.88,3.33,3.33,0,0,1-1.77.26,1.83,1.83,0,0,1-1.16-.7,3.2,3.2,0,0,1-.57-1.46,6.21,6.21,0,0,1-.07-1l2.08-.79.34-2.64-2.14.81.26-2,2.14-.81.34-2.64-2.14.81.27-2.09,0,.39,2.72-1,.05-.39,10.93-4.15-.05.39,2.71-1-.22,1.7-1.5.57-.34,2.64,1.5-.57-.26,2-1.5.57-.34,2.64,1.49-.57a5.24,5.24,0,0,1-.56,1.63,8.22,8.22,0,0,1-1.12,1.6,8.79,8.79,0,0,1-1.44,1.3,6.84,6.84,0,0,1-1.55.85,3.64,3.64,0,0,1-2.16.22,1.77,1.77,0,0,1-1.31-1.25A8.59,8.59,0,0,1,200.07,167.09Zm-2.56-1.57a1.94,1.94,0,0,0,.81-.14,3.68,3.68,0,0,0,.86-.48,4.82,4.82,0,0,0,.76-.69,4,4,0,0,0,.56-.81,2.64,2.64,0,0,0,.28-.87l.67-5.15L197.12,159l-.65,5a1.79,1.79,0,0,0,.05.8,1,1,0,0,0,.36.52,1.13,1.13,0,0,0,.62.2m10.57-10.66-4.12,1.57-.58,4.47a1.27,1.27,0,0,0,.36,1.23,1.45,1.45,0,0,0,1.45,0,3.69,3.69,0,0,0,1.57-1.12,3.05,3.05,0,0,0,.73-1.56l.6-4.61" fill="#ffd64c"/><polygon points="213.06 158.68 210 159.84 208.51 160.41 208.85 157.77 210.35 157.2 213.41 156.04 213.06 158.68" fill="#ffd64c"/><polygon points="213.06 158.68 215.2 160.39 212.14 161.56 210 159.84 213.06 158.68" fill="#ed6128"/></g><ellipse cx="197.92" cy="198.72" rx="17.45" ry="5.88" fill="#56403d" opacity="0.24"/><ellipse cx="164.34" cy="161.87" rx="10.64" ry="3.58" fill="#56403d" opacity="0.24"/></g></g></svg>